<svg width="590" height="700" viewBox="0 0 590 700" fill="none" xmlns="http://www.w3.org/2000/svg">
<g opacity="0.8">
<ellipse cx="213.142" cy="686.008" rx="211.141" ry="13.7771" fill="#090610"/>
<path d="M39.166 563.616C-10.3033 551.826 0.398154 500.391 9.68966 479.352L99.7209 448.273L297.726 496.653L418.516 512.994C416.958 535.885 412.769 546.293 401.855 562.335C394.516 571.309 385.194 577.714 380.068 578.995C369.568 580.59 363.658 580.583 353.155 578.995C342.985 576.684 337.499 574.878 328.164 570.665C319.708 567.519 314.346 565.189 304.454 560.733C299.831 559.68 297.224 559.68 292.6 560.733C286.451 563.135 282.694 566.188 275.939 571.947C265.002 580.079 257.815 583.322 242.297 585.724H233.006C220.731 585.542 214.935 584.106 206.413 579.316C193.331 571.032 186.322 564.493 174.694 547.596C167.14 536.286 153.227 525.503 149.703 524.848C141.107 523.253 136.636 523.019 129.838 524.848C123.709 526.714 116.255 534.07 108.372 540.227C102.239 545.699 90.732 554.412 89.1478 554.966C88.0016 555.366 82.2976 559.512 74.0892 561.694C62.9927 563.972 48.1275 565.196 39.166 563.616Z" fill="#6E47C1" stroke="#100906" stroke-width="3.20397"/>
<path d="M86.2649 528.692C53.9044 570.665 -33.884 504.983 29.5545 452.758C56.1475 437.699 136.567 366.892 136.567 366.892L146.82 354.397L155.15 341.261C155.15 341.261 169.815 310.455 171.49 306.337C144.791 276.327 124.392 244.821 123.751 230.723C123.431 226.877 123.431 225.918 123.431 225.918V217.587C123.431 215.665 123.751 208.937 123.751 208.937C123.751 199.965 128.108 185.097 142.975 180.741C150.985 178.394 154.829 185.868 169.568 199.965L200.326 225.918L226.919 147.1C220.297 129.478 211.412 86.481 228.841 55.4666C246.271 24.4522 263.765 20.8637 268.25 17.0189C268.25 17.0189 276.934 11.7503 288.756 7.72744C288.712 7.62169 289.293 7.44012 290.341 7.20389C299.624 4.22961 310.612 2.28067 320.795 2.28069C333.184 1.7467 361.486 4.20311 380.069 20.2231C404.632 8.79555 450.876 -3.74268 450.876 37.8448C450.876 41.6895 445.75 61.5541 425.245 79.176C432.567 84.3555 445.232 98.4739 455.042 113.458C462.829 125.355 466.574 136.063 469.78 146.139C471.237 150.717 473.832 160.976 474.656 174.165C475.145 181.981 474.656 194.682 474.656 194.682L475.867 243.219V264.045C475.867 287.434 470.613 305.056 467.537 328.124C475.867 331.649 535.141 325.561 570.705 319.474C578.394 318.299 592.171 322.293 585.763 347.668C579.356 373.044 539.306 392.204 520.082 398.612C511.004 402.99 483.044 411.299 443.828 409.505L417.876 518.12C404.62 539.384 372.943 568.391 327.203 543.111C319.875 539.06 308.941 528.052 300.931 527.411C294.843 526.45 280.76 529.039 268.25 546.315C254.794 564.898 203.21 562.334 187.51 524.207C181.957 514.916 166.044 495.82 146.82 493.769C146.82 493.769 112.217 490.565 86.2649 528.692Z" fill="white"/>
<path d="M320.795 2.28069C310.026 2.28067 298.356 4.4604 288.756 7.72744M320.795 2.28069C310.009 3.83614 288.499 7.10313 288.756 7.72744M320.795 2.28069C333.184 1.7467 361.486 4.20311 380.069 20.2231C404.632 8.79555 450.876 -3.74268 450.876 37.8448C450.876 41.6895 445.75 61.5541 425.245 79.176C432.567 84.3555 445.232 98.4739 455.042 113.458C462.829 125.355 466.574 136.063 469.78 146.139C471.237 150.717 473.832 160.976 474.656 174.165C475.145 181.981 474.656 194.682 474.656 194.682L475.867 243.219C475.867 243.219 475.867 240.656 475.867 264.045C475.867 287.434 470.613 305.056 467.537 328.124C475.867 331.649 535.141 325.561 570.705 319.474C578.394 318.299 592.171 322.293 585.763 347.668C579.356 373.044 539.306 392.204 520.082 398.612C511.004 402.99 483.044 411.299 443.828 409.505L417.876 518.12C404.62 539.384 372.943 568.391 327.203 543.111C319.875 539.061 308.941 528.052 300.931 527.411C294.843 526.45 280.76 529.039 268.25 546.315C254.794 564.898 203.21 562.334 187.51 524.207C181.957 514.916 166.044 495.82 146.82 493.769C146.82 493.769 112.217 490.565 86.2649 528.692C53.9044 570.665 -33.884 504.983 29.5545 452.758C56.1475 437.699 136.567 366.892 136.567 366.892L146.82 354.397L155.15 341.261C155.15 341.261 169.815 310.455 171.49 306.337C144.791 276.327 124.392 244.821 123.751 230.723C123.431 226.877 123.431 225.918 123.431 225.918C123.431 225.918 123.431 219.51 123.431 217.587C123.431 215.665 123.751 208.937 123.751 208.937C123.751 199.965 128.108 185.097 142.975 180.741C150.985 178.394 154.829 185.868 169.568 199.965L200.326 225.918L226.919 147.1C220.297 129.478 211.412 86.481 228.841 55.4666C246.271 24.4522 263.765 20.8637 268.25 17.0189C268.25 17.0189 276.934 11.7503 288.756 7.72744" stroke="#100906" stroke-width="3.20397" stroke-linejoin="round"/>
<path d="M203.53 332.289C189.959 323.015 183.097 317.207 171.49 306.337C158.866 336.098 150.458 347.83 137.218 366.304L136.567 367.212C148.263 368.626 161.516 367.932 178.539 360.13C191.321 352.892 200.442 343.598 204.491 333.25L203.53 332.289Z" fill="#E4D7FF"/>
<path d="M234.928 253.472C221.203 243.878 213.701 237.964 200.646 226.238L226.278 146.779L234.608 142.614C231.725 176.256 232.365 211.5 234.928 253.472Z" fill="#E4D7FF"/>
<path d="M203.53 332.289C189.959 323.015 183.097 317.207 171.49 306.337C158.866 336.098 150.458 347.83 137.218 366.304L136.567 367.212C148.263 368.626 161.516 367.932 178.539 360.13C191.321 352.892 200.442 343.598 204.491 333.25L203.53 332.289Z" stroke="#100906" stroke-width="3.20397" stroke-linejoin="round"/>
<path d="M234.928 253.472C221.203 243.878 213.701 237.964 200.646 226.238L226.278 146.779L234.608 142.614C231.725 176.256 232.365 211.5 234.928 253.472Z" stroke="#100906" stroke-width="3.20397" stroke-linejoin="round"/>
<path d="M225.957 147.42C214.743 113.458 209.617 42.3301 272.415 15.7369C277.192 13.3156 281.962 11.3017 286.69 9.64977C328.255 -4.87384 366.539 8.58732 377.505 19.2612C367.91 25.0629 353.612 35.2245 339.057 48.3247C318.781 66.5749 298.006 90.5283 288.755 116.342L258.638 131.247L225.957 147.42Z" fill="#F78C5D"/>
<path d="M272.415 15.7369C209.617 42.3301 214.743 113.458 225.957 147.42L258.638 131.247M272.415 15.7369C246.273 38.3075 248.438 95.8774 258.638 131.247M272.415 15.7369C277.192 13.3156 281.962 11.3017 286.69 9.64977M258.638 131.247L288.755 116.342C298.006 90.5283 318.781 66.5749 339.057 48.3247M339.057 48.3247C353.612 35.2245 367.91 25.0629 377.505 19.2612C366.539 8.58732 328.255 -4.87384 286.69 9.64977M339.057 48.3247C315.617 21.7722 302.396 6.58345 286.69 9.64977" stroke="#100906" stroke-width="3.20397" stroke-linejoin="round"/>
<path d="M426.205 79.8169C401.818 77.73 361.806 86.8657 342.582 93.2714C323.358 99.6771 316.844 104.278 289.076 116.726C296.658 96.0929 324.379 46.1242 379.107 20.5434C436.863 -6.45303 455.224 18.1802 452.478 33.3593C446.482 59.1516 440.918 68.9682 426.205 79.8169Z" fill="#E47240"/>
<path d="M226.598 146.781C237.686 140.191 264.196 127.88 289.076 116.726M289.076 116.726C316.844 104.278 323.358 99.6771 342.582 93.2714C361.806 86.8657 401.818 77.73 426.205 79.817C440.918 68.9682 446.482 59.1516 452.478 33.3593C455.224 18.1802 436.863 -6.45303 379.107 20.5434C324.379 46.1242 296.658 96.0929 289.076 116.726Z" stroke="#100906" stroke-width="3.20397" stroke-linejoin="round"/>
<path d="M372.06 225.918C375.299 224.028 384.299 220.588 396.089 228.161C407.88 235.733 401.002 241.782 396.089 243.86C392.031 245.462 382.248 247.448 375.584 242.578C368.92 237.708 368.215 228.161 372.06 225.918Z" fill="#F8A3CB"/>
<path fill-rule="evenodd" clip-rule="evenodd" d="M403.463 199.005C407.948 203.171 411.468 207.655 412.75 222.393C412.75 222.393 414.031 230.724 411.472 236.491C402.822 252.19 394.491 252.19 382.957 252.19C373.73 252.19 366.932 244.501 365.01 239.054C364.364 236.811 363.089 233.928 363.729 222.073C364.369 210.218 372.064 199.005 379.753 195.481C393.205 190.674 398.977 194.84 403.463 199.005ZM396.093 228.16C384.303 220.588 375.303 224.028 372.064 225.918C368.219 228.16 368.924 237.708 375.588 242.578C382.252 247.448 392.035 245.462 396.093 243.86C401.006 241.782 407.884 235.733 396.093 228.16Z" fill="#100906"/>
<rect x="402.496" y="133.964" width="26.2725" height="7.04873" rx="3.52436" fill="#020103"/>
<rect x="405.7" y="136.527" width="21.1462" height="2.56317" rx="1.28159" fill="#6843B6"/>
<rect x="335.854" y="138.698" width="26.2725" height="7.04873" rx="3.52436" transform="rotate(-17.5868 335.854 138.698)" fill="#020103"/>
<rect x="339.682" y="140.173" width="21.1462" height="2.56317" rx="1.28159" transform="rotate(-17.5868 339.682 140.173)" fill="#6843B6"/>
<ellipse cx="355.398" cy="166.965" rx="16.981" ry="19.5442" fill="black"/>
<ellipse cx="357" cy="169.848" rx="12.1751" ry="13.4567" fill="white"/>
<circle cx="364.048" cy="170.489" r="2.56317" fill="black"/>
<ellipse cx="413.71" cy="166.965" rx="16.981" ry="19.5442" fill="black"/>
<ellipse cx="414.671" cy="169.848" rx="12.1751" ry="13.4567" fill="white"/>
<circle cx="422.361" cy="171.13" r="2.56317" fill="black"/>
</g>
</svg>
