<svg width="607" height="223" viewBox="0 0 607 223" fill="none" xmlns="http://www.w3.org/2000/svg">
<path d="M0.7798 166.681V144.981L111.758 3.00368H145.237L35.1892 144.981L19.3795 140.021H192.667V166.681H0.7798ZM121.368 220V166.681L122.298 140.021V92.9022H151.437V220H121.368ZM299.908 222.48C282.961 222.48 267.772 218.14 254.339 209.46C241.112 200.78 230.572 188.174 222.719 171.641C215.073 155.108 211.249 135.061 211.249 111.502C211.249 87.9422 215.073 67.8959 222.719 51.3629C230.572 34.8298 241.112 22.2234 254.339 13.5435C267.772 4.86366 282.961 0.523737 299.908 0.523737C316.647 0.523737 331.734 4.86366 345.167 13.5435C358.6 22.2234 369.14 34.8298 376.786 51.3629C384.433 67.8959 388.256 87.9422 388.256 111.502C388.256 135.061 384.433 155.108 376.786 171.641C369.14 188.174 358.6 200.78 345.167 209.46C331.734 218.14 316.647 222.48 299.908 222.48ZM299.908 194.89C311.274 194.89 321.194 191.79 329.667 185.591C338.347 179.391 345.064 170.091 349.817 157.691C354.777 145.291 357.257 129.895 357.257 111.502C357.257 93.1088 354.777 77.7124 349.817 65.3126C345.064 52.9128 338.347 43.613 329.667 37.4131C321.194 31.2132 311.274 28.1133 299.908 28.1133C288.541 28.1133 278.518 31.2132 269.838 37.4131C261.158 43.613 254.339 52.9128 249.379 65.3126C244.625 77.7124 242.249 93.1088 242.249 111.502C242.249 129.895 244.625 145.291 249.379 157.691C254.339 170.091 261.158 179.391 269.838 185.591C278.518 191.79 288.541 194.89 299.908 194.89ZM414.913 166.681V144.981L525.891 3.00368H559.371L449.323 144.981L433.513 140.021H606.8V166.681H414.913ZM535.501 220V166.681L536.431 140.021V92.9022H565.571V220H535.501Z" fill="white" fill-opacity="0.5"/>
</svg>
