<svg width="30" height="30" viewBox="0 0 30 30" fill="none" xmlns="http://www.w3.org/2000/svg">
<path d="M7.612 3.41479C7.76365 3.26189 7.88257 3.07862 7.96125 2.87656C8.03993 2.6745 8.07666 2.45802 8.06914 2.24077C8.06161 2.02352 8.01 1.81022 7.91754 1.61431C7.82508 1.4184 7.69378 1.24413 7.53193 1.10249C6.71741 0.394232 5.6826 0.0035394 4.61178 0L4.37589 0.0066147H4.34127C1.8994 0.158024 -0.00503963 2.31891 1.00185e-05 4.92447C1.00185e-05 6.32097 0.577113 7.06037 1.03302 7.65205C1.16096 7.81746 1.32134 7.95388 1.50392 8.05259C1.68651 8.1513 1.88729 8.21014 2.09345 8.22534C2.11221 8.22534 2.14395 8.22902 2.23773 8.22902C2.42317 8.22874 2.60664 8.19024 2.7771 8.11585C2.94756 8.04145 3.10149 7.93269 3.22962 7.79611L7.612 3.41479ZM25.6609 0.008085L25.425 0.000735153H25.3875C24.3157 0.00357842 23.2797 0.394314 22.4645 1.10323C22.3028 1.24486 22.1717 1.41904 22.0794 1.61482C21.9871 1.81059 21.9356 2.02372 21.928 2.24079C21.9205 2.45785 21.9572 2.67416 22.0357 2.87608C22.1143 3.078 22.233 3.26117 22.3844 3.41406L26.7682 7.79831C26.8966 7.93538 27.051 8.04449 27.222 8.11903C27.393 8.19356 27.577 8.23198 27.763 8.23196C27.8553 8.23196 27.8871 8.23196 27.9073 8.22828C28.1133 8.21298 28.3139 8.15409 28.4964 8.05539C28.6789 7.95668 28.8391 7.82031 28.967 7.65498C29.4258 7.06331 29.9971 6.32611 30 4.92741C30.0043 2.31891 28.0999 0.158024 25.6609 0.008085Z" fill="white"/>
<path d="M15.0162 4.11598C8.01887 4.11598 2.31998 9.91877 2.31998 17.0519C2.3175 20.0763 3.35969 23.005 5.26392 25.325L2.6583 27.9806C2.54858 28.0892 2.46114 28.219 2.40108 28.3623C2.34101 28.5057 2.30953 28.6598 2.30844 28.8157C2.30736 28.9715 2.3367 29.1261 2.39476 29.2703C2.45282 29.4145 2.53845 29.5455 2.64665 29.6557C2.75486 29.7659 2.88349 29.8531 3.02506 29.9122C3.16663 29.9713 3.31832 30.0011 3.47131 30C3.6243 29.9988 3.77553 29.9666 3.91621 29.9054C4.05689 29.8441 4.18422 29.755 4.29078 29.6431L6.8964 26.9883C9.17465 28.9263 12.0484 29.9879 15.0162 29.9879C17.9841 29.9879 20.8578 28.9263 23.1361 26.9883L25.7424 29.6431C25.849 29.755 25.9763 29.8441 26.117 29.9054C26.2577 29.9666 26.4089 29.9988 26.5619 30C26.7149 30.0011 26.8666 29.9713 27.0082 29.9122C27.1497 29.8531 27.2784 29.7659 27.3866 29.6557C27.4948 29.5455 27.5804 29.4145 27.6384 29.2703C27.6965 29.1261 27.7259 28.9715 27.7248 28.8157C27.7237 28.6598 27.6922 28.5057 27.6321 28.3623C27.5721 28.219 27.4846 28.0892 27.3749 27.9806L24.7686 25.325C26.6731 23.0052 27.7154 20.0763 27.7125 17.0519C27.7125 9.92245 22.0172 4.11598 15.0162 4.11598ZM16.1705 17.0519C16.1705 17.3638 16.0488 17.6629 15.8324 17.8835C15.6159 18.104 15.3224 18.2279 15.0162 18.2279H9.24521C8.9391 18.2279 8.64552 18.104 8.42907 17.8835C8.21261 17.6629 8.09101 17.3638 8.09101 17.0519C8.09101 16.74 8.21261 16.4409 8.42907 16.2204C8.64552 15.9998 8.9391 15.8759 9.24521 15.8759H13.862V8.81995C13.862 8.50806 13.9836 8.20894 14.2001 7.9884C14.4166 7.76786 14.7101 7.64396 15.0162 7.64396C15.3224 7.64396 15.6159 7.76786 15.8324 7.9884C16.0488 8.20894 16.1705 8.50806 16.1705 8.81995V17.0519Z" fill="white"/>
</svg>
