<svg width="193" height="68" viewBox="0 0 193 68" fill="none" xmlns="http://www.w3.org/2000/svg">
<path d="M58.0977 44.1076C57.9543 44.1101 57.8119 44.0842 57.6787 44.0313C57.5454 43.9784 57.424 43.8996 57.3214 43.7995C57.2144 43.6988 57.1305 43.5762 57.0752 43.4401C57.0199 43.304 56.9946 43.1576 57.001 43.0109V23.0974C57.001 22.8065 57.1165 22.5276 57.3222 22.3219C57.5279 22.1163 57.8068 22.0007 58.0977 22.0007C58.2425 21.9953 58.3868 22.0211 58.5207 22.0764C58.6547 22.1317 58.7751 22.2151 58.874 22.3211C58.9797 22.4208 59.0638 22.5411 59.121 22.6747C59.1783 22.8082 59.2074 22.9521 59.2067 23.0974V42.0127H70.2971C70.4396 42.0086 70.5815 42.0326 70.7147 42.0833C70.8479 42.134 70.9698 42.2106 71.0735 42.3085C71.1804 42.4019 71.2656 42.5176 71.323 42.6475C71.3805 42.7773 71.4089 42.9182 71.4062 43.0601C71.4097 43.2022 71.3818 43.3434 71.3242 43.4734C71.2667 43.6033 71.181 43.7189 71.0735 43.8118C70.9698 43.9097 70.8479 43.9862 70.7147 44.037C70.5815 44.0877 70.4396 44.1117 70.2971 44.1076H58.0977Z" fill="white"/>
<path d="M76.1751 25.6728C75.9745 25.6756 75.7756 25.6364 75.591 25.5579C75.4064 25.4794 75.2402 25.3633 75.103 25.2169C74.9548 25.076 74.8376 24.9056 74.7591 24.7167C74.6805 24.5278 74.6424 24.3246 74.6471 24.1201C74.638 23.9103 74.6752 23.701 74.7561 23.5072C74.8371 23.3134 74.9597 23.1398 75.1154 22.9988C75.4172 22.7309 75.8085 22.5858 76.2121 22.5921C76.6033 22.5926 76.9807 22.7374 77.2718 22.9988C77.4275 23.1398 77.5501 23.3134 77.6311 23.5072C77.712 23.701 77.7492 23.9103 77.7401 24.1201C77.7401 24.3251 77.6995 24.528 77.6207 24.7172C77.5419 24.9064 77.4265 25.0781 77.281 25.2224C77.1355 25.3667 76.9629 25.4809 76.7731 25.5582C76.5833 25.6355 76.38 25.6744 76.1751 25.6728ZM76.1751 44.1568C76.0273 44.1697 75.8784 44.1504 75.7388 44.1C75.5992 44.0497 75.4722 43.9695 75.3667 43.8652C75.2612 43.7608 75.1797 43.6348 75.1277 43.4957C75.0758 43.3567 75.0548 43.2081 75.0661 43.0601V29.727C75.059 29.5786 75.0816 29.4302 75.1323 29.2906C75.1831 29.151 75.2611 29.0229 75.3618 28.9137C75.4702 28.8118 75.5982 28.733 75.7381 28.6822C75.8779 28.6313 76.0266 28.6095 76.1751 28.6179C76.3178 28.6116 76.4603 28.6347 76.5939 28.6855C76.7274 28.7364 76.8491 28.814 76.9514 28.9137C77.0522 29.0229 77.1302 29.151 77.1809 29.2906C77.2317 29.4302 77.2542 29.5786 77.2472 29.727V43.0108C77.2547 43.1574 77.2323 43.3039 77.1815 43.4416C77.1306 43.5793 77.0524 43.7052 76.9514 43.8118C76.7535 44.0038 76.4879 44.1101 76.2121 44.1075L76.1751 44.1568Z" fill="white"/>
<path d="M83.9753 44.1076C83.8268 44.1161 83.6781 44.0942 83.5382 44.0434C83.3984 43.9925 83.2704 43.9138 83.162 43.8119C83.0624 43.7095 82.9847 43.5878 82.9339 43.4543C82.883 43.3208 82.86 43.1783 82.8662 43.0356V29.7271C82.8592 29.5787 82.8817 29.4303 82.9325 29.2907C82.9833 29.1511 83.0613 29.023 83.162 28.9138C83.2704 28.8119 83.3984 28.7331 83.5382 28.6823C83.6781 28.6314 83.8268 28.6096 83.9753 28.618C84.118 28.6118 84.2605 28.6348 84.394 28.6856C84.5275 28.7365 84.6492 28.8141 84.7516 28.9138C84.8523 29.023 84.9303 29.1511 84.9811 29.2907C85.0319 29.4303 85.0544 29.5787 85.0474 29.7271V43.0848C85.0564 43.228 85.0349 43.3714 84.9842 43.5056C84.9335 43.6397 84.8548 43.7615 84.7534 43.863C84.652 43.9644 84.5302 44.043 84.396 44.0937C84.2618 44.1444 84.1184 44.1659 83.9753 44.1569V44.1076ZM96.1501 44.1076C96.0043 44.1148 95.8587 44.091 95.7228 44.0379C95.5869 43.9848 95.4638 43.9036 95.3614 43.7996C95.1753 43.6078 95.0695 43.3521 95.0657 43.0848V35.6912C95.1043 34.688 94.8746 33.6926 94.4003 32.8077C93.9769 32.075 93.3468 31.4835 92.5888 31.1072C91.7808 30.7234 90.8956 30.5295 90.0011 30.5404C89.1494 30.5345 88.3072 30.7197 87.5365 31.0825C86.8266 31.4072 86.2147 31.9129 85.7621 32.5489C85.3302 33.1754 85.1021 33.9199 85.109 34.6808H83.5563C83.5774 33.5488 83.91 32.4445 84.5175 31.4892C85.134 30.5528 85.9833 29.7927 86.982 29.2834C88.0088 28.735 89.1575 28.4553 90.3215 28.4701C91.5714 28.4509 92.8069 28.7386 93.9197 29.3081C94.9613 29.8753 95.817 30.731 96.3842 31.7726C97.0224 32.9823 97.3365 34.3365 97.2961 35.7035V43.0972C97.2995 43.2389 97.2741 43.3798 97.2214 43.5114C97.1687 43.643 97.0898 43.7625 96.9896 43.8628C96.8894 43.963 96.7699 44.0418 96.6383 44.0945C96.5067 44.1472 96.3657 44.1726 96.224 44.1692L96.1501 44.1076Z" fill="white"/>
<path d="M108.83 44.3171C107.441 44.3402 106.071 43.9913 104.862 43.3066C103.717 42.6486 102.778 41.6841 102.151 40.5217C101.491 39.2649 101.156 37.8625 101.178 36.4429C101.15 35.0087 101.503 33.5927 102.201 32.3394C102.862 31.1703 103.829 30.2032 104.998 29.5422C106.251 28.8868 107.644 28.5446 109.058 28.5446C110.472 28.5446 111.865 28.8868 113.118 29.5422C114.285 30.1986 115.245 31.1673 115.891 32.3394C116.576 33.5983 116.932 35.0098 116.926 36.4429L115.694 37.1206C115.718 38.4069 115.417 39.6783 114.819 40.8174C114.25 41.8795 113.396 42.7626 112.354 43.3682C111.289 44.002 110.07 44.3303 108.83 44.3171ZM109.114 50.2936C107.752 50.3201 106.403 50.0334 105.17 49.4556C104.07 48.9284 103.111 48.147 102.373 47.1759C102.278 47.0793 102.204 46.9633 102.157 46.8357C102.11 46.7082 102.092 46.572 102.102 46.4366C102.116 46.3042 102.16 46.1767 102.231 46.0637C102.301 45.9506 102.396 45.8548 102.509 45.7835C102.627 45.7004 102.762 45.6423 102.904 45.6126C103.046 45.583 103.192 45.5824 103.334 45.611C103.614 45.6615 103.865 45.8154 104.037 46.0422C104.614 46.7374 105.338 47.2969 106.156 47.6812C107.088 48.1177 108.109 48.3328 109.138 48.3096C110.151 48.336 111.151 48.0759 112.023 47.5593C112.895 47.0427 113.604 46.2905 114.067 45.3891C114.589 44.3859 114.848 43.2665 114.819 42.136V37.823L115.645 36.1841L116.975 36.4429V42.2222C116.996 43.6595 116.644 45.0775 115.953 46.338C115.29 47.5541 114.306 48.5655 113.109 49.2628C111.913 49.96 110.548 50.3165 109.163 50.2936H109.114ZM109.052 42.3331C110.088 42.3539 111.109 42.0941 112.009 41.5814C112.864 41.0888 113.564 40.3676 114.03 39.4989C114.522 38.5464 114.779 37.4901 114.779 36.4182C114.779 35.3463 114.522 34.29 114.03 33.3376C113.571 32.4603 112.87 31.7333 112.009 31.2427C111.101 30.7444 110.082 30.4832 109.046 30.4832C108.01 30.4832 106.991 30.7444 106.082 31.2427C105.215 31.7318 104.505 32.4586 104.037 33.3376C103.553 34.2924 103.301 35.3478 103.301 36.4182C103.301 37.4887 103.553 38.5441 104.037 39.4989C104.513 40.369 105.221 41.0899 106.082 41.5814C106.993 42.0731 108.018 42.3115 109.052 42.2715V42.3331Z" fill="white"/>
<path d="M127.906 44.3171C126.66 44.3363 125.428 44.0486 124.32 43.4792C123.278 42.912 122.423 42.0562 121.855 41.0146C121.21 39.8076 120.896 38.4515 120.943 37.0837V29.6901C120.937 29.5481 120.962 29.4066 121.015 29.2748C121.068 29.143 121.149 29.0241 121.252 28.9261C121.35 28.8229 121.469 28.7412 121.6 28.6861C121.732 28.631 121.873 28.6036 122.016 28.6057C122.162 28.6024 122.307 28.6291 122.443 28.6842C122.579 28.7393 122.702 28.8216 122.804 28.9261C122.907 29.0241 122.988 29.143 123.041 29.2748C123.094 29.4066 123.118 29.5481 123.112 29.6901V37.0837C123.078 38.0865 123.308 39.0807 123.778 39.9672C124.198 40.7065 124.835 41.2998 125.601 41.6677C126.401 42.0302 127.268 42.2177 128.146 42.2177C129.024 42.2177 129.891 42.0302 130.691 41.6677C131.404 41.3427 132.017 40.832 132.465 40.189C132.899 39.5681 133.128 38.8269 133.118 38.0695H134.671C134.629 39.1959 134.293 40.2919 133.697 41.2487C133.107 42.183 132.283 42.9474 131.307 43.4668C130.262 44.0307 129.093 44.323 127.906 44.3171ZM134.141 44.1446C133.998 44.1508 133.856 44.1278 133.722 44.077C133.589 44.0261 133.467 43.9485 133.365 43.8488C133.264 43.7423 133.186 43.6163 133.135 43.4787C133.084 43.341 133.062 43.1944 133.069 43.0479V29.7394C133.064 29.5949 133.087 29.4509 133.138 29.3155C133.189 29.1802 133.266 29.0562 133.365 28.9507C133.467 28.8511 133.589 28.7734 133.722 28.7226C133.856 28.6717 133.998 28.6487 134.141 28.655C134.286 28.6498 134.43 28.6734 134.565 28.7241C134.7 28.7749 134.824 28.8519 134.93 28.9507C135.034 29.0533 135.116 29.1762 135.172 29.3119C135.227 29.4475 135.253 29.593 135.25 29.7394V43.0479C135.256 43.1964 135.23 43.3444 135.175 43.4824C135.12 43.6204 135.036 43.7452 134.93 43.8488C134.711 44.0351 134.428 44.128 134.141 44.1076V44.1446Z" fill="white"/>
<path d="M141.892 25.6728C141.691 25.6763 141.492 25.6376 141.307 25.559C141.123 25.4805 140.957 25.3639 140.82 25.2169C140.672 25.076 140.554 24.9056 140.476 24.7167C140.397 24.5279 140.359 24.3247 140.364 24.1202C140.355 23.9103 140.392 23.7011 140.473 23.5072C140.554 23.3134 140.677 23.1398 140.832 22.9988C141.131 22.7379 141.514 22.5942 141.91 22.5942C142.307 22.5942 142.69 22.7379 142.989 22.9988C143.144 23.1398 143.267 23.3134 143.348 23.5072C143.429 23.7011 143.466 23.9103 143.457 24.1202C143.457 24.3251 143.416 24.528 143.338 24.7172C143.259 24.9064 143.143 25.0781 142.998 25.2224C142.852 25.3668 142.68 25.4809 142.49 25.5582C142.3 25.6355 142.097 25.6744 141.892 25.6728ZM141.892 44.1568C141.745 44.1679 141.598 44.1471 141.459 44.0959C141.321 44.0447 141.196 43.9643 141.092 43.8602C140.988 43.756 140.907 43.6306 140.856 43.4926C140.805 43.3545 140.784 43.207 140.795 43.0601V29.727C140.788 29.5786 140.811 29.4303 140.861 29.2906C140.912 29.151 140.99 29.0229 141.091 28.9137C141.313 28.726 141.595 28.6231 141.886 28.6231C142.177 28.6231 142.458 28.726 142.681 28.9137C142.781 29.0229 142.859 29.151 142.91 29.2906C142.961 29.4303 142.983 29.5786 142.976 29.727V43.0108C142.987 43.1566 142.967 43.3029 142.916 43.4401C142.866 43.5773 142.786 43.702 142.684 43.8059C142.581 43.9098 142.457 43.9905 142.32 44.0426C142.184 44.0946 142.038 44.1168 141.892 44.1075V44.1568Z" fill="white"/>
<path d="M149.594 44.1076C149.45 44.118 149.305 44.0981 149.169 44.0493C149.034 44.0005 148.909 43.9238 148.805 43.8242C148.708 43.7181 148.633 43.5938 148.584 43.4584C148.535 43.323 148.514 43.1792 148.522 43.0356V29.7024C148.514 29.5568 148.535 29.4111 148.584 29.2737C148.632 29.1363 148.707 29.0098 148.805 28.9014C149.027 28.7138 149.309 28.6108 149.6 28.6108C149.891 28.6108 150.172 28.7138 150.395 28.9014C150.492 29.0098 150.567 29.1363 150.616 29.2737C150.665 29.4111 150.686 29.5568 150.678 29.7024V43.0848C150.685 43.2285 150.664 43.3722 150.616 43.5076C150.567 43.643 150.492 43.7674 150.395 43.8735C150.284 43.9653 150.156 44.0335 150.018 44.0738C149.881 44.114 149.736 44.1256 149.594 44.1076ZM149.433 34.5699C149.466 33.4621 149.78 32.3809 150.345 31.4276C150.883 30.5329 151.632 29.7839 152.526 29.2465C153.433 28.7124 154.468 28.4355 155.521 28.4455C156.21 28.4104 156.898 28.537 157.529 28.8152C157.739 28.8958 157.91 29.0517 158.011 29.2523C158.111 29.4529 158.133 29.6838 158.072 29.8996C158.023 30.1309 157.886 30.3341 157.69 30.4664C157.484 30.5559 157.26 30.5939 157.037 30.5773H156.174C155.22 30.4722 154.255 30.586 153.352 30.91C152.574 31.1855 151.893 31.6823 151.393 32.3395C150.906 33.0027 150.655 33.8092 150.678 34.6315L149.433 34.5699Z" fill="white"/>
<path d="M168.238 44.3171C166.988 44.3379 165.752 44.0501 164.639 43.4792C163.598 42.912 162.742 42.0562 162.175 41.0146C161.53 39.8076 161.215 38.4515 161.263 37.0837V29.6901C161.257 29.5481 161.281 29.4066 161.335 29.2748C161.388 29.143 161.468 29.0241 161.571 28.9261C161.67 28.8229 161.788 28.7412 161.92 28.6861C162.051 28.631 162.193 28.6036 162.335 28.6057C162.481 28.6024 162.627 28.6291 162.763 28.6842C162.898 28.7393 163.021 28.8216 163.124 28.9261C163.228 29.0235 163.311 29.142 163.366 29.2737C163.421 29.4054 163.448 29.5473 163.444 29.6901V37.0837C163.404 38.0871 163.634 39.083 164.11 39.9672C164.526 40.7056 165.158 41.299 165.921 41.6677C166.72 42.0302 167.588 42.2177 168.466 42.2177C169.343 42.2177 170.211 42.0302 171.01 41.6677C171.724 41.3427 172.336 40.832 172.785 40.189C173.219 39.5681 173.447 38.8269 173.438 38.0695H174.991C174.955 39.1859 174.626 40.2731 174.035 41.221C173.444 42.1689 172.613 42.9437 171.626 43.4668C170.586 44.0291 169.421 44.3215 168.238 44.3171ZM174.461 44.1446C174.318 44.1508 174.175 44.1278 174.042 44.077C173.908 44.0261 173.787 43.9485 173.684 43.8488C173.583 43.7423 173.505 43.6163 173.454 43.4787C173.403 43.341 173.381 43.1944 173.389 43.0479V29.7394C173.383 29.5949 173.407 29.4509 173.458 29.3155C173.508 29.1802 173.585 29.0562 173.684 28.9507C173.787 28.8511 173.908 28.7734 174.042 28.7226C174.175 28.6717 174.318 28.6487 174.461 28.655C174.605 28.6492 174.749 28.6723 174.885 28.7231C175.02 28.7739 175.144 28.8513 175.249 28.9507C175.354 29.0533 175.436 29.1762 175.491 29.3119C175.546 29.4475 175.573 29.593 175.57 29.7394V43.0479C175.575 43.1964 175.55 43.3444 175.495 43.4824C175.439 43.6204 175.356 43.7452 175.249 43.8488C175.141 43.9416 175.016 44.0122 174.881 44.0566C174.745 44.101 174.603 44.1184 174.461 44.1076V44.1446Z" fill="white"/>
<path d="M186.069 44.317C184.94 44.31 183.82 44.1185 182.754 43.7502C181.736 43.4192 180.82 42.8338 180.092 42.0497C179.995 41.9495 179.923 41.8287 179.88 41.6962C179.838 41.5638 179.826 41.4233 179.846 41.2856C179.885 40.9946 180.035 40.7299 180.265 40.5463C180.501 40.3698 180.797 40.2904 181.09 40.3245C181.362 40.3557 181.613 40.4875 181.793 40.6941C182.282 41.2463 182.9 41.6695 183.592 41.9264C184.38 42.2176 185.215 42.3637 186.056 42.3577C187.118 42.4444 188.18 42.1897 189.088 41.6307C189.374 41.4378 189.61 41.1797 189.777 40.8776C189.944 40.5756 190.037 40.2382 190.049 39.8932C190.046 39.5532 189.956 39.2197 189.787 38.9243C189.619 38.6288 189.378 38.3812 189.088 38.205C188.114 37.647 187.036 37.2947 185.921 37.1699C184.408 37.0284 182.961 36.4837 181.731 35.5926C181.32 35.2724 180.986 34.8633 180.756 34.3959C180.525 33.9286 180.404 33.415 180.4 32.8939C180.365 32.0281 180.636 31.1777 181.164 30.491C181.695 29.8313 182.399 29.3322 183.197 29.0492C184.097 28.7202 185.049 28.5574 186.007 28.5686C187.131 28.5352 188.248 28.7585 189.272 29.2217C190.142 29.6177 190.903 30.218 191.491 30.9716C191.581 31.0751 191.649 31.1967 191.69 31.3284C191.73 31.4601 191.742 31.5989 191.725 31.7356C191.701 31.8712 191.648 32.0001 191.57 32.113C191.491 32.2259 191.388 32.32 191.269 32.3887C191.034 32.5243 190.757 32.5682 190.492 32.5119C190.201 32.4704 189.935 32.3261 189.741 32.1052C189.298 31.5721 188.737 31.1501 188.102 30.873C187.413 30.6111 186.682 30.4815 185.945 30.491C185.078 30.4554 184.221 30.6785 183.481 31.1318C183.253 31.2642 183.056 31.4429 182.901 31.6564C182.747 31.8698 182.639 32.1133 182.584 32.371C182.53 32.6288 182.53 32.8951 182.584 33.1529C182.639 33.4106 182.747 33.654 182.902 33.8674C183.231 34.2539 183.656 34.5472 184.134 34.7177C184.928 35.0216 185.755 35.2285 186.598 35.3338C187.763 35.4866 188.895 35.8279 189.95 36.3442C190.667 36.6936 191.276 37.23 191.712 37.8969C192.056 38.4877 192.235 39.1602 192.23 39.8439C192.244 40.686 191.97 41.5076 191.454 42.1729C190.889 42.8826 190.144 43.4274 189.297 43.7502C188.269 44.1511 187.172 44.3438 186.069 44.317Z" fill="white"/>
<path d="M32.66 53.1816L17.66 36.7916C17.5155 36.6564 17.4143 36.4815 17.3692 36.2889C17.3241 36.0962 17.3372 35.8945 17.4068 35.7093C17.4764 35.5241 17.5993 35.3637 17.7601 35.2484C17.9209 35.1331 18.1123 35.0681 18.31 35.0616C20.3802 34.8711 22.3906 34.2645 24.2206 33.2781C26.0507 32.2918 27.6627 30.946 28.96 29.3216C31.7691 25.6489 33.1862 21.0998 32.96 16.4816C32.96 16.4816 32.8 8.06155 27.01 4.24155C23.6821 2.07951 19.7882 0.952062 15.82 1.00156C15.5548 1.00156 15.3004 1.10692 15.1129 1.29446C14.9254 1.48199 14.82 1.73635 14.82 2.00156C14.8198 2.13809 14.8475 2.27322 14.9015 2.39863C14.9554 2.52404 15.0345 2.63706 15.1338 2.73075C15.2331 2.82444 15.3505 2.89681 15.4789 2.94338C15.6072 2.98995 15.7437 3.00975 15.88 3.00156C17.88 3.00156 22.45 3.25156 25.88 6.17156C30.31 9.91156 30.64 16.4916 30.64 16.4916C30.8843 18.5708 30.6882 20.6783 30.0645 22.6768C29.4408 24.6753 28.4035 26.5202 27.02 28.0916C23.46 32.3216 18.02 32.9516 15.77 33.0216C15.5048 33.0216 15.2504 33.1269 15.0629 33.3144C14.8754 33.502 14.77 33.7563 14.77 34.0216V37.0216C14.7741 37.2892 14.8775 37.5458 15.06 37.7416L30.8 54.2616C30.9241 54.3625 31.0802 54.4157 31.24 54.4116C31.24 54.4116 32.8 54.5016 33.01 54.1116C33.22 53.7216 32.66 53.1816 32.66 53.1816Z" fill="white" stroke="white" stroke-width="2" stroke-miterlimit="10"/>
<path d="M1.66 2.00159H3.08C3.26565 2.00159 3.4437 2.07533 3.57498 2.2066C3.70625 2.33788 3.78 2.51593 3.78 2.70158V63.0716C3.78 63.2572 3.85375 63.4353 3.98502 63.5665C4.1163 63.6978 4.29435 63.7716 4.48 63.7716H32C32.0959 63.7716 32.1908 63.7905 32.2794 63.8272C32.3679 63.8638 32.4484 63.9176 32.5162 63.9854C32.584 64.0532 32.6377 64.1336 32.6744 64.2222C32.7111 64.3108 32.73 64.4057 32.73 64.5016V65.5016C32.73 65.5974 32.7111 65.6924 32.6744 65.7809C32.6377 65.8695 32.584 65.95 32.5162 66.0178C32.4484 66.0856 32.3679 66.1393 32.2794 66.176C32.1908 66.2127 32.0959 66.2316 32 66.2316H1.73C1.53639 66.2316 1.35072 66.1547 1.21381 66.0178C1.07691 65.8809 1 65.6952 1 65.5016V2.70158C0.999709 2.52266 1.06794 2.35041 1.19069 2.22023C1.31343 2.09005 1.48137 2.01181 1.66 2.00159Z" fill="white" stroke="white" stroke-width="2" stroke-miterlimit="10"/>
<path d="M17.9399 21.4815C19.3261 21.4815 20.4499 20.3578 20.4499 18.9715C20.4499 17.5853 19.3261 16.4615 17.9399 16.4615C16.5537 16.4615 15.4299 17.5853 15.4299 18.9715C15.4299 20.3578 16.5537 21.4815 17.9399 21.4815Z" fill="white" stroke="white" stroke-width="0.75" stroke-miterlimit="10"/>
</svg>
