<svg width="30" height="26" viewBox="0 0 30 26" fill="none" xmlns="http://www.w3.org/2000/svg">
<path d="M4.28571 3.63898H25.7143C25.9646 3.63886 26.2147 3.65428 26.4629 3.68513C26.3788 3.11165 26.1759 2.56066 25.8664 2.06538C25.5569 1.57009 25.1474 1.14077 24.6623 0.803289C24.1773 0.465812 23.6269 0.227172 23.0444 0.101758C22.4618 -0.0236561 21.8591 -0.0332472 21.2725 0.0735629L3.64955 2.99415H3.62946C2.52326 3.19949 1.53955 3.80703 0.879241 4.69267C1.87406 4.0058 3.06491 3.63745 4.28571 3.63898ZM25.7143 5.19905H4.28571C3.14945 5.20025 2.06009 5.63894 1.25663 6.41887C0.453168 7.1988 0.00124075 8.25626 0 9.35924V21.8398C0.00124075 22.9428 0.453168 24.0003 1.25663 24.7802C2.06009 25.5601 3.14945 25.9988 4.28571 26H25.7143C26.8505 25.9988 27.9399 25.5601 28.7434 24.7802C29.5468 24.0003 29.9988 22.9428 30 21.8398V9.35924C29.9988 8.25626 29.5468 7.1988 28.7434 6.41887C27.9399 5.63894 26.8505 5.20025 25.7143 5.19905ZM22.5335 17.6796C22.1097 17.6796 21.6954 17.5576 21.343 17.3291C20.9906 17.1005 20.7159 16.7756 20.5537 16.3955C20.3916 16.0155 20.3491 15.5972 20.4318 15.1937C20.5145 14.7902 20.7186 14.4196 21.0183 14.1287C21.3179 13.8378 21.6998 13.6397 22.1154 13.5594C22.5311 13.4791 22.962 13.5203 23.3535 13.6778C23.7451 13.8352 24.0797 14.1018 24.3152 14.4439C24.5507 14.786 24.6763 15.1881 24.6763 15.5995C24.6763 16.1512 24.4506 16.6803 24.0487 17.0704C23.6468 17.4605 23.1018 17.6796 22.5335 17.6796Z" fill="white"/>
<path d="M0.0334821 13.7469V7.27914C0.0334821 5.87053 0.837054 3.50897 3.62612 2.9974C5.9933 2.56643 8.33705 2.56643 8.33705 2.56643C8.33705 2.56643 9.87723 3.60647 8.60491 3.60647C7.33259 3.60647 7.36607 5.19905 8.60491 5.19905C9.84375 5.19905 8.60491 6.72662 8.60491 6.72662L3.61607 12.2194L0.0334821 13.7469Z" fill="white"/>
</svg>
