<svg width="65" height="79" viewBox="0 0 65 79" fill="none" xmlns="http://www.w3.org/2000/svg">
<path opacity="0.31" d="M31.2993 0.354805V78H16.8795V12.4453H0.463057V0.354805H31.2993ZM55.3537 78.7765C52.8395 78.7765 50.695 77.9261 48.9202 76.2253C47.1455 74.4505 46.2581 72.2321 46.2581 69.57C46.2581 66.8339 47.1085 64.6154 48.8093 62.9146C50.5841 61.2138 52.7655 60.3634 55.3537 60.3634C57.9419 60.3634 60.0864 61.2138 61.7872 62.9146C63.5619 64.6154 64.4493 66.8339 64.4493 69.57C64.4493 72.2321 63.5619 74.4505 61.7872 76.2253C60.0124 77.9261 57.8679 78.7765 55.3537 78.7765Z" fill="white"/>
</svg>
