<svg width="88" height="80" viewBox="0 0 88 80" fill="none" xmlns="http://www.w3.org/2000/svg">
<path opacity="0.31" d="M37.9352 32.4112C45.1082 33.2986 50.5803 35.7388 54.3516 39.732C58.123 43.7252 60.0086 48.7167 60.0086 54.7064C60.0086 59.2173 58.8625 63.3214 56.5701 67.0188C54.2777 70.7161 50.8021 73.6741 46.1434 75.8925C41.5587 78.037 35.9386 79.1092 29.2833 79.1092C23.7372 79.1092 18.376 78.3328 13.1997 76.7799C8.09728 75.153 3.73436 72.9346 0.110922 70.1246L6.32254 58.9215C9.13255 61.2878 12.5342 63.1735 16.5273 64.5785C20.5945 65.9095 24.7725 66.5751 29.0615 66.5751C34.1639 66.5751 38.1571 65.5398 41.041 63.4693C43.9989 61.3248 45.4779 58.4408 45.4779 54.8174C45.4779 51.1939 44.0729 48.3839 41.2629 46.3873C38.5268 44.3168 34.3118 43.2815 28.6178 43.2815H21.5188V33.4095L39.1554 12.4453H3.88226V0.354805H56.7919V10.005L37.9352 32.4112ZM78.0923 78.7765C75.5781 78.7765 73.4336 77.9261 71.6589 76.2253C69.8841 74.4505 68.9968 72.2321 68.9968 69.57C68.9968 66.8339 69.8472 64.6154 71.548 62.9146C73.3227 61.2138 75.5042 60.3634 78.0923 60.3634C80.6805 60.3634 82.825 61.2138 84.5258 62.9146C86.3006 64.6154 87.1879 66.8339 87.1879 69.57C87.1879 72.2321 86.3006 74.4505 84.5258 76.2253C82.7511 77.9261 80.6066 78.7765 78.0923 78.7765Z" fill="white"/>
</svg>
