<svg width="89" height="80" viewBox="0 0 89 80" fill="none" xmlns="http://www.w3.org/2000/svg">
<path opacity="0.31" d="M61.1179 66.7986V79H3.88226V69.3498L34.7185 40.0665C38.194 36.7388 40.5234 33.8549 41.7066 31.4146C42.9637 28.9004 43.5922 26.4231 43.5922 23.9828C43.5922 20.3594 42.3721 17.5863 39.9318 15.6637C37.4915 13.7411 33.9051 12.7797 29.1724 12.7797C21.26 12.7797 15.1963 15.4788 10.9812 20.877L0.887374 13.1125C3.91923 9.04538 7.98636 5.9026 13.0888 3.68416C18.2651 1.39178 24.033 0.245589 30.3925 0.245589C38.8226 0.245589 45.5518 2.24218 50.5803 6.23536C55.6088 10.2285 58.123 15.6637 58.123 22.5409C58.123 26.7559 57.2356 30.7121 55.4608 34.4095C53.6861 38.1069 50.2845 42.3219 45.2561 47.0545L24.5137 66.7986H61.1179ZM79.1756 79.7765C76.6613 79.7765 74.5168 78.9261 72.7421 77.2253C70.9674 75.4505 70.08 73.2321 70.08 70.57C70.08 67.8339 70.9304 65.6154 72.6312 63.9146C74.4059 62.2138 76.5874 61.3634 79.1756 61.3634C81.7637 61.3634 83.9082 62.2138 85.609 63.9146C87.3838 65.6154 88.2711 67.8339 88.2711 70.57C88.2711 73.2321 87.3838 75.4505 85.609 77.2253C83.8343 78.9261 81.6898 79.7765 79.1756 79.7765Z" fill="white"/>
</svg>
